# xmcd CD database file
#
# Track frame offsets:
#	150
#	8064
#	28691
#	52605
#	73456
#	98843
#	111760
#	134033
#	154347
#	174893
#	202900
#	223498
#	251982
#	282176
#
# Disc length: 4372 seconds
#
# Revision: 0
# Processed by: cddbd v1.5.2PL0 Copyright (c) Steve Scherf et al.
# Submitted via: CDex 1.51
#
DISCID=cf11120e
DTITLE=Tom Shaka - Sweet and Mean
DYEAR=2015
DGENRE=Blues
TTITLE0=IntonThe Blues
TTITLE1=Ride With Me Tonight
TTITLE2=Come On Over Baby
TTITLE3=They Don`t Understand These Blues
TTITLE4=I`m In The Mood
TTITLE5=Cajun Stomp
TTITLE6=Walkin' My Blues Away
TTITLE7=Catfish Blues
TTITLE8=Malaguena
TTITLE9=I Can`t Stop Lovin' You
TTITLE10=Pride And Joy
TTITLE11=Shake Your Hips
TTITLE12=Jazzin' The Blues
TTITLE13=On The Road Again
EXTD=YEAR: 2015
EXTT0=
EXTT1=
EXTT2=
EXTT3=
EXTT4=
EXTT5=
EXTT6=
EXTT7=
EXTT8=
EXTT9=
EXTT10=
EXTT11=
EXTT12=
EXTT13=
PLAYORDER=
